<svg aria-hidden="true" style="position: absolute; width: 0; height: 0; overflow: hidden;" version="1.1" xmlns="http://www.w3.org/2000/svg" xmlns:xlink="http://www.w3.org/1999/xlink">
<defs>
<symbol id="icon-logo" viewBox="0 0 88 32">
<path fill="#fff" style="fill: var(--color1, #fff)" d="M10.601 0.456h5.513l10.277 30.69h-5.592l-2.598-7.65h-9.766l-2.559 7.65h-5.591l10.315-30.69zM17.216 19.302l-3.859-12.665-4.016 12.665h7.875zM32.37 0.456l6.93 11.325 6.893-11.325h5.906l-9.689 15.561 9.372 15.13h-5.907l-6.575-10.894-6.615 10.893h-5.945l9.371-15.129-9.686-15.56h5.946z"></path>
<path fill="#ec7979" style="fill: var(--color2, #ec7979)" d="M54.913 31.146v-30.69h5.433v30.69h-5.433zM87.088 5.686h-8.939v25.46h-5.394v-25.46h-8.938v-5.23h23.27v5.23z"></path>
</symbol>
<symbol id="icon-bulb" viewBox="0 0 32 32">
<path d="M16 0.406c0.816 0 1.478 0.662 1.478 1.478v0 1.568c0 0.816-0.662 1.478-1.478 1.478s-1.478-0.662-1.478-1.478v-1.568c0-0.816 0.662-1.478 1.478-1.478v0zM4.973 4.973c0.267-0.267 0.637-0.433 1.045-0.433s0.777 0.165 1.045 0.433l1.109 1.109c0.275 0.269 0.446 0.643 0.446 1.058 0 0.816-0.662 1.478-1.478 1.478-0.414 0-0.789-0.171-1.057-0.445l-1.109-1.109c-0.267-0.267-0.433-0.637-0.433-1.045s0.165-0.777 0.433-1.045v0zM27.027 4.973c0.267 0.267 0.433 0.637 0.433 1.045s-0.165 0.777-0.433 1.045l-1.109 1.109c-0.266 0.26-0.63 0.42-1.032 0.42-0.816 0-1.478-0.662-1.478-1.478 0-0.402 0.16-0.766 0.42-1.032l1.109-1.109c0.267-0.267 0.637-0.433 1.045-0.433s0.777 0.165 1.045 0.433v0zM16 9.636c-3.515 0.001-6.364 2.85-6.364 6.365 0 1.757 0.712 3.348 1.863 4.5l-0 0 0.86 0.858c0.301 0.301 0.573 0.629 0.813 0.982l0.015 0.023h5.628c0.255-0.376 0.528-0.705 0.828-1.005v0l0.861-0.859c1.151-1.152 1.863-2.742 1.863-4.499 0-3.515-2.85-6.365-6.365-6.365-0 0-0 0-0.001 0h0zM17.71 25.32h-3.421c0.034 0.272 0.051 0.549 0.051 0.827v0.833c0 0.917 0.743 1.66 1.66 1.66s1.66-0.743 1.66-1.66v0-0.833c0-0.277 0.017-0.553 0.051-0.827zM10.822 8.252c1.454-0.983 3.247-1.569 5.176-1.569 5.147 0 9.32 4.173 9.32 9.32 0 2.573-1.042 4.902-2.728 6.588l0-0-0.86 0.858c-0.69 0.691-1.117 1.644-1.117 2.698v0.833c0 2.549-2.066 4.614-4.614 4.614s-4.614-2.066-4.614-4.614v0-0.833c-0-1.053-0.427-2.007-1.117-2.698l0 0-0.86-0.858c-1.686-1.687-2.729-4.016-2.729-6.59 0-3.217 1.63-6.054 4.109-7.729l0.033-0.021zM0.406 16c0-0.816 0.662-1.478 1.478-1.478v0h1.568c0.816 0 1.478 0.662 1.478 1.478s-0.662 1.478-1.478 1.478h-1.568c-0.816 0-1.478-0.662-1.478-1.478v0zM27.071 16c0-0.816 0.662-1.478 1.478-1.478v0h1.568c0.816 0 1.478 0.662 1.478 1.478s-0.662 1.478-1.478 1.478h-1.568c-0.816 0-1.478-0.662-1.478-1.478v0z"></path>
</symbol>
<symbol id="icon-keyboard" viewBox="0 0 32 32">
<path  d="M28.399 4.848c0.955 0 1.871 0.378 2.546 1.050 0.651 0.647 1.054 1.543 1.055 2.533v15.137c0 0.95-0.379 1.862-1.055 2.534-0.652 0.648-1.552 1.049-2.545 1.049-0.001 0-0.001 0-0.002 0h-24.798c-0.993-0-1.893-0.401-2.547-1.049l0 0c-0.651-0.647-1.055-1.542-1.055-2.532 0-0.001 0-0.001 0-0.002v0-15.137c0-0.95 0.38-1.862 1.055-2.533 0.653-0.649 1.552-1.050 2.545-1.050 0 0 0.001 0 0.001 0h24.798zM28.399 7.237h-24.798c-0.319 0-0.623 0.126-0.849 0.35-0.217 0.216-0.352 0.514-0.353 0.845v15.137c0.002 0.66 0.537 1.194 1.198 1.194 0.001 0 0.002 0 0.003 0h24.798c0.319 0 0.623-0.126 0.849-0.35 0.217-0.216 0.352-0.514 0.352-0.845v-15.137c0-0.317-0.126-0.621-0.352-0.845-0.217-0.216-0.517-0.35-0.848-0.35-0 0-0 0-0 0h0zM7.602 19.977h16.804c0.304 0 0.596 0.115 0.819 0.321 0.235 0.218 0.382 0.529 0.382 0.874 0 0.604-0.449 1.103-1.032 1.181l-0.006 0.001-0.163 0.011h-16.805c-0 0-0 0-0.001 0-0.317 0-0.605-0.122-0.819-0.322l0.001 0.001c-0.234-0.218-0.38-0.529-0.38-0.873 0-0.287 0.101-0.55 0.27-0.756l-0.002 0.002c0.192-0.235 0.466-0.388 0.768-0.43l0.163-0.011zM23.206 14.403c0.424 0 0.831 0.168 1.132 0.466 0.289 0.288 0.468 0.686 0.468 1.126s-0.179 0.838-0.468 1.126l-0 0c-0.29 0.289-0.69 0.467-1.132 0.467s-0.842-0.178-1.132-0.467l0 0c-0.289-0.288-0.468-0.686-0.468-1.126s0.179-0.838 0.468-1.126l0-0c0.29-0.288 0.69-0.466 1.131-0.466 0 0 0 0 0 0h-0zM13.612 14.403c0 0 0 0 0 0 0.441 0 0.841 0.178 1.131 0.466l-0-0c0.289 0.288 0.468 0.686 0.468 1.126s-0.179 0.838-0.468 1.126l-0 0c-0.29 0.289-0.69 0.467-1.132 0.467s-0.842-0.178-1.132-0.467l0 0c-0.289-0.288-0.468-0.686-0.468-1.126s0.179-0.838 0.468-1.126l0-0c0.29-0.288 0.69-0.466 1.131-0.466 0 0 0 0 0.001 0h-0zM8.811 14.403c0.425 0 0.832 0.168 1.132 0.466 0.289 0.288 0.468 0.686 0.468 1.126s-0.179 0.838-0.468 1.126l-0 0c-0.29 0.289-0.69 0.467-1.132 0.467s-0.842-0.178-1.132-0.467l0 0c-0.289-0.288-0.468-0.686-0.468-1.126s0.179-0.838 0.468-1.126l0-0c0.29-0.288 0.69-0.466 1.131-0.466 0 0 0 0 0.001 0h-0zM18.413 14.403c0 0 0 0 0 0 0.441 0 0.841 0.178 1.131 0.466l-0-0c0.289 0.288 0.468 0.686 0.468 1.126s-0.179 0.838-0.468 1.126l-0 0c-0.29 0.289-0.69 0.467-1.132 0.467s-0.842-0.178-1.132-0.467l0 0c-0.289-0.288-0.468-0.686-0.468-1.126s0.179-0.838 0.468-1.126l0-0c0.29-0.288 0.69-0.466 1.131-0.466 0 0 0 0 0.001 0h-0zM6.401 9.626c0 0 0.001 0 0.001 0 0.441 0 0.841 0.178 1.131 0.466l-0-0c0.289 0.288 0.468 0.686 0.468 1.126s-0.179 0.838-0.468 1.126l-0 0c-0.29 0.289-0.69 0.467-1.132 0.467s-0.842-0.178-1.132-0.467l0 0c-0.289-0.288-0.468-0.686-0.468-1.126s0.179-0.838 0.468-1.126l0-0c0.29-0.288 0.69-0.466 1.131-0.466 0 0 0 0 0 0h-0zM11.195 9.626c0 0 0 0 0 0 0.441 0 0.841 0.178 1.131 0.466l-0-0c0.289 0.288 0.468 0.686 0.468 1.126s-0.179 0.838-0.468 1.126l-0 0c-0.29 0.289-0.69 0.467-1.132 0.467s-0.842-0.178-1.132-0.467l0 0c-0.289-0.288-0.468-0.686-0.468-1.126s0.179-0.838 0.468-1.126l0-0c0.29-0.288 0.69-0.466 1.131-0.466 0 0 0 0 0.001 0h-0zM15.996 9.626c0 0 0 0 0 0 0.441 0 0.841 0.178 1.131 0.466l-0-0c0.289 0.288 0.468 0.686 0.468 1.126s-0.179 0.838-0.468 1.126l-0 0c-0.29 0.289-0.69 0.467-1.132 0.467s-0.842-0.178-1.132-0.467l0 0c-0.289-0.288-0.468-0.686-0.468-1.126s0.179-0.838 0.468-1.126l0-0c0.29-0.288 0.69-0.466 1.131-0.466 0 0 0 0 0.001 0h-0zM20.797 9.626c0 0 0 0 0 0 0.441 0 0.841 0.178 1.131 0.466l-0-0c0.289 0.288 0.468 0.686 0.468 1.126s-0.179 0.838-0.468 1.126l-0 0c-0.29 0.289-0.69 0.467-1.132 0.467s-0.842-0.178-1.132-0.467l0 0c-0.289-0.288-0.468-0.686-0.468-1.126s0.179-0.838 0.468-1.126l0-0c0.29-0.288 0.69-0.466 1.131-0.466 0 0 0 0 0 0h-0zM25.599 9.626c0 0 0 0 0 0 0.441 0 0.841 0.178 1.131 0.466l-0-0c0.289 0.288 0.468 0.686 0.468 1.126s-0.179 0.838-0.468 1.126l-0 0c-0.29 0.289-0.69 0.467-1.132 0.467s-0.842-0.178-1.132-0.467l0 0c-0.289-0.288-0.468-0.686-0.468-1.126s0.179-0.838 0.468-1.126l0-0c0.29-0.288 0.69-0.466 1.131-0.466 0 0 0 0 0 0h-0z"></path>
</symbol>
<symbol id="icon-lightning" viewBox="0 0 32 32">
<path  d="M10.536 31.908c-0.233-0.102-0.42-0.274-0.539-0.488l-0.003-0.006c-0.090-0.161-0.143-0.354-0.143-0.559 0-0.060 0.005-0.119 0.013-0.177l-0.001 0.006 2.042-13.542h-5.42c-0.009 0-0.019 0-0.029 0-0.17 0-0.332-0.039-0.476-0.108l0.007 0.003c-0.161-0.076-0.295-0.184-0.401-0.315l-0.002-0.002c-0.156-0.196-0.251-0.448-0.251-0.722 0-0.093 0.011-0.184 0.032-0.27l-0.002 0.008 3.366-14.857c0.059-0.256 0.203-0.483 0.407-0.643s0.457-0.244 0.715-0.238h11.22c0.001 0 0.002 0 0.003 0 0.175 0 0.341 0.041 0.488 0.113l-0.006-0.003c0.152 0.073 0.285 0.18 0.391 0.313 0.157 0.197 0.251 0.448 0.251 0.723 0 0.088-0.010 0.174-0.028 0.257l0.001-0.008-1.941 8.891h5.329c0.21-0.001 0.417 0.059 0.595 0.173s0.322 0.275 0.415 0.467c0.061 0.136 0.096 0.296 0.096 0.463 0 0.255-0.082 0.491-0.222 0.683l0.002-0.003-14.587 19.428c-0.099 0.149-0.228 0.27-0.379 0.357l-0.005 0.003c-0.154 0.087-0.326 0.137-0.502 0.143-0.159-0.003-0.308-0.037-0.445-0.095l0.008 0.003zM17.425 12.572l2.245-10.286h-8.921l-2.85 12.571h6.632l-1.784 11.748 10.57-14.034h-5.891z"></path>
</symbol>
<symbol id="icon-facebook" viewBox="0 0 32 32">
<path d="M12.264 28.666h5.333v-10.68h4.805l0.528-5.306h-5.333v-2.68c0-0 0-0 0-0 0-0.736 0.597-1.333 1.333-1.333 0 0 0 0 0 0h4v-5.333h-4c-3.682 0-6.666 2.985-6.666 6.667v0 2.68h-2.666l-0.528 5.306h3.194v10.68z"></path>
</symbol>
<symbol id="icon-linkedin" viewBox="0 0 32 32">
<path d="M26.666 4h-21.333c-0.736 0-1.333 0.597-1.333 1.333v0 21.333c0 0 0 0 0 0 0 0.736 0.597 1.333 1.333 1.333 0 0 0 0 0 0h21.333c0 0 0 0 0 0 0.736 0 1.333-0.597 1.333-1.333 0-0 0-0 0-0v0-21.333c0-0.736-0.597-1.333-1.334-1.333v0zM11.119 24.449h-3.563v-11.453h3.563v11.453zM9.337 11.432c-1.14 0-2.064-0.924-2.064-2.064s0.924-2.064 2.064-2.064v0c1.14 0 2.064 0.924 2.064 2.064s-0.924 2.064-2.064 2.064v0zM24.45 24.449h-3.558v-5.569c0-1.328-0.024-3.036-1.851-3.036-1.853 0-2.135 1.448-2.135 2.943v5.664h-3.556v-11.453h3.413v1.565h0.049c0.474-0.9 1.636-1.85 3.366-1.85 3.605 0 4.271 2.371 4.271 5.456v6.28h0.001z"></path>
</symbol>
<symbol id="icon-pinterest" viewBox="0 0 32 32">
<path d="M12.053 28.72c1.28 0.387 2.573 0.613 3.947 0.613 7.364 0 13.334-5.97 13.334-13.334s-5.97-13.334-13.334-13.334c-7.364 0-13.334 5.97-13.334 13.334v0c0 5.667 3.56 10.534 8.587 12.454-0.12-1.040-0.24-2.76 0-3.947l1.533-6.587s-0.387-0.773-0.387-2c0-1.84 1.146-3.214 2.454-3.214 1.146 0 1.68 0.84 1.68 1.92 0 1.147-0.76 2.787-1.147 4.36-0.226 1.307 0.694 2.453 2.027 2.453 2.373 0 4.213-2.534 4.213-6.107 0-3.2-2.293-5.387-5.586-5.387-3.76 0-5.973 2.8-5.973 5.747 0 1.146 0.373 2.307 0.986 3.067 0.12 0.080 0.12 0.186 0.080 0.386l-0.387 1.454c0 0.226-0.146 0.306-0.373 0.146-1.707-0.747-2.694-3.173-2.694-5.133 0-4.213 2.986-8.040 8.746-8.040 4.587 0 8.16 3.293 8.16 7.666 0 4.587-2.84 8.267-6.907 8.267-1.294 0-2.56-0.694-3.014-1.507l-0.893 3.16c-0.306 1.146-1.146 2.68-1.72 3.6v-0.040z"></path>
</symbol>
<symbol id="icon-instagram" viewBox="0 0 32 32">
<path  d="M27.93 11.073c-0.015-1.065-0.218-2.079-0.579-3.014l0.020 0.060c-0.638-1.617-1.894-2.873-3.469-3.496l-0.042-0.015c-0.863-0.334-1.862-0.538-2.905-0.56l-0.009-0c-1.283-0.058-1.689-0.073-4.945-0.073s-3.673 0-4.946 0.073c-0.996 0.021-1.981 0.21-2.914 0.56-1.617 0.638-2.873 1.894-3.496 3.469l-0.014 0.042c-0.335 0.863-0.538 1.861-0.558 2.904l-0 0.009c-0.058 1.285-0.075 1.691-0.075 4.947s0 3.672 0.075 4.947c0.021 1.053 0.224 2.052 0.579 2.976l-0.020-0.060c0.639 1.616 1.895 2.872 3.47 3.495l0.042 0.015c0.93 0.364 1.915 0.567 2.913 0.6 1.284 0.057 1.691 0.075 4.947 0.075s3.673 0 4.946-0.075c1.053-0.021 2.052-0.224 2.975-0.579l-0.060 0.020c1.616-0.639 2.872-1.895 3.496-3.469l0.015-0.042c0.334-0.864 0.537-1.863 0.558-2.907l0-0.009c0.058-1.282 0.075-1.689 0.075-4.946-0.003-3.256-0.003-3.669-0.078-4.945zM15.992 22.136c-3.406 0-6.164-2.759-6.164-6.164s2.759-6.164 6.164-6.164c0.016-0 0.034-0 0.053-0 3.404 0 6.164 2.76 6.164 6.164s-2.76 6.164-6.164 6.164c-0.019 0-0.037-0-0.056-0l0.003 0zM22.401 11.017c-0.001 0-0.002 0-0.003 0-0.793 0-1.435-0.643-1.435-1.435 0-0.199 0.041-0.389 0.114-0.561l-0.004 0.009c0.221-0.526 0.732-0.888 1.328-0.888 0.793 0 1.436 0.643 1.436 1.436 0 0.001 0 0.001 0 0.002v-0c0 0 0 0.001 0 0.001 0 0.793-0.643 1.436-1.435 1.436h-0z"></path>
<path d="M15.992 19.976c0.013 0 0.028 0 0.043 0 2.211 0 4.004-1.793 4.004-4.004s-1.793-4.004-4.004-4.004c-0.015 0-0.030 0-0.045 0l0.002-0c-2.193 0.024-3.961 1.808-3.961 4.004s1.768 3.98 3.959 4.004l0.002 0z"></path>
</symbol>
<symbol id="icon-github" viewBox="0 0 32 32">
<path d="M16.034 2.667c-7.345 0-13.298 5.953-13.298 13.299 0 5.875 3.809 10.86 9.094 12.62 0.665 0.12 0.905-0.289 0.905-0.642 0-0.315-0.011-1.153-0.015-2.261-3.7 0.803-4.481-1.784-4.481-1.784-0.603-1.536-1.476-1.945-1.476-1.945-1.207-0.826 0.092-0.807 0.092-0.807 1.336 0.093 2.036 1.371 2.036 1.371 1.187 2.032 3.114 1.445 3.869 1.105 0.121-0.86 0.468-1.447 0.847-1.779-2.952-0.335-6.056-1.476-6.056-6.574 0-1.449 0.518-2.639 1.365-3.567-0.134-0.337-0.594-1.691 0.132-3.52 0 0 1.116-0.358 3.656 1.362 0.997-0.282 2.143-0.446 3.327-0.448h0.001c1.125 0.001 2.244 0.152 3.328 0.448 2.542-1.722 3.656-1.362 3.656-1.362 0.727 1.829 0.271 3.183 0.132 3.52 0.853 0.928 1.365 2.117 1.365 3.567 0 5.111-3.106 6.233-6.069 6.562 0.473 0.411 0.9 1.221 0.9 2.462 0 1.778-0.016 3.213-0.016 3.649 0 0.357 0.237 0.769 0.916 0.639 5.283-1.763 9.088-6.744 9.088-12.617 0-7.346-5.953-13.299-13.298-13.299z"></path>
</symbol>
<symbol id="icon-rss" viewBox="0 0 32 32">
<path d="M8.24 26.666c1.605 0 2.906-1.301 2.906-2.907s-1.301-2.907-2.906-2.907v0c-1.605 0-2.906 1.301-2.906 2.907s1.301 2.907 2.906 2.907v0z"></path>
<path d="M5.333 5.92v3.773c9.373 0 16.973 7.6 16.973 16.974h3.773c0-11.454-9.294-20.747-20.747-20.747zM5.333 13.466v3.773c5.2 0 9.426 4.227 9.426 9.427h3.774c0-7.293-5.907-13.2-13.2-13.2z"></path>
</symbol>
<symbol id="icon-twitter" viewBox="0 0 32 32">
<path d="M26.177 10.663c0.017 0.233 0.017 0.465 0.017 0.697 0 7.1-5.404 15.281-15.28 15.281-3.043 0-5.87-0.881-8.248-2.412 0.432 0.049 0.848 0.067 1.297 0.067 0.008 0 0.017 0 0.026 0 2.517 0 4.832-0.864 6.665-2.312l-0.023 0.017c-2.341-0.044-4.312-1.575-5.012-3.686l-0.011-0.038c0.332 0.049 0.666 0.082 1.015 0.082 0.481 0 0.965-0.066 1.415-0.182-2.474-0.513-4.307-2.674-4.307-5.263 0-0.003 0-0.005 0-0.008v0-0.066c0.7 0.397 1.53 0.645 2.416 0.681l0.011 0c-1.452-0.975-2.395-2.61-2.395-4.466 0-0.002 0-0.004 0-0.006v0c0-0.998 0.265-1.912 0.731-2.71 2.662 3.256 6.598 5.385 11.037 5.619l0.038 0.002c-0.082-0.369-0.131-0.793-0.133-1.229v-0.002c0-0.001 0-0.002 0-0.003 0-2.965 2.403-5.368 5.368-5.368 0.001 0 0.002 0 0.003 0h-0c1.546 0 2.943 0.648 3.924 1.696 1.285-0.253 2.427-0.704 3.456-1.324l-0.048 0.027c-0.416 1.263-1.251 2.292-2.337 2.947l-0.024 0.013c1.146-0.134 2.191-0.427 3.161-0.859l-0.068 0.027c-0.749 1.082-1.64 2.001-2.661 2.755l-0.031 0.022z"></path>
</symbol>
</defs>
</svg>
